<?xml version="1.0" encoding="UTF-8" ?>
<svg
  xmlns="http://www.w3.org/2000/svg"
  viewBox="0 0 1161.91 236.03"
  fill="#000"
><path
    d="M815.49,0c4.34,.94,8.8,1.5,12.99,2.89,24.9,8.25,39.92,25.32,44.04,51.22,3.29,20.7-1.56,39.48-15.96,55.14-11.27,12.26-25.51,18.75-42.12,20.14-17.27,1.44-32.97-2.75-46.64-13.44-13.93-10.88-21.85-25.27-23.8-42.87-1.88-16.94,1.32-32.7,11.48-46.64,11.01-15.1,26.01-23.6,44.53-25.97,.53-.07,1.04-.31,1.56-.48,4.64,0,9.28,0,13.91,0Zm-45.83,64.74c.21,2.54,.34,5.09,.65,7.61,2.64,21.49,17.59,34.79,39.25,34.45,15.98-.25,27.5-7.76,33.89-22.53,3.9-9.02,4.54-18.52,3.08-28.14-1.46-9.66-5.35-18.17-12.94-24.64-8.19-6.98-17.93-9.24-28.38-8.47-13.62,1.01-24.14,7.19-30.56,19.54-3.61,6.94-4.96,14.4-5,22.18Z"
  /><path
    d="M644.2,0c3.27,.66,6.6,1.1,9.79,2.02,14.28,4.13,24.35,12.6,27.86,27.6,.29,1.24,.51,2.5,.67,3.76,.1,.78,.02,1.58,.02,2.6h-27.67c-.22-1-.39-2.16-.73-3.28-1.42-4.64-4.5-7.86-8.9-9.73-5.32-2.27-10.84-2.62-16.37-.91-5.46,1.69-8.67,5.47-9.49,11.16-.75,5.25,.84,9.53,5.15,12.81,4.41,3.36,9.61,4.92,14.72,6.69,8.42,2.91,17.05,5.33,25.21,8.85,9.82,4.23,17.03,11.37,19.03,22.37,3.52,19.39-6.06,36.25-24.85,42.53-17.84,5.95-35.35,4.62-51.33-5.94-9.47-6.26-14.47-15.48-14.93-26.96-.01-.32-.01-.64,.01-.95,.01-.15,.11-.28,.22-.57h26.82c.33,1.51,.56,3.06,1.02,4.55,2.36,7.65,7.96,11.27,15.61,11.99,6.19,.58,12.18-.18,17.07-4.53,6.51-5.8,6.25-15.85-.41-21.46-3.95-3.32-8.73-4.86-13.5-6.45-8.68-2.89-17.51-5.39-25.99-8.77-10.13-4.04-17.61-11.05-19.79-22.24-4.08-20.98,6.71-37.74,27.59-43.16,3.06-.79,6.19-1.32,9.28-1.97,4.64,0,9.28,0,13.91,0Z"
  /><path
    d="M1161.91,22.51h-33.56v105.65h-25.78V22.44h-33.58V1.97c.69-.06,1.38-.18,2.06-.18,29.73,0,59.46,0,89.19,0,.56,0,1.11,.09,1.67,.13V22.51Z"
  /><path
    d="M267.74,128.25h-26.83c-.82-2.28-1.7-4.71-2.55-7.14-1.73-4.95-3.49-9.9-5.13-14.88-.43-1.32-.95-1.92-2.48-1.91-15.59,.06-31.17,.06-46.76,0-1.49,0-2.04,.54-2.49,1.88-2.49,7.37-5.09,14.7-7.66,22.08h-26.78c.33-.93,.6-1.71,.88-2.5,14.58-40.54,29.19-81.07,43.69-121.64,.77-2.14,1.71-2.73,3.88-2.69,8.07,.13,16.15,.12,24.22,0,1.89-.03,2.74,.5,3.4,2.33,14.59,40.71,29.25,81.39,43.89,122.08,.26,.74,.46,1.5,.73,2.39Zm-78.58-44.52h36.39c-6.05-17.46-12.03-34.71-18.2-52.52-6.18,17.85-12.15,35.08-18.19,52.52Z"
  /><path
    d="M528.94,1.67V22.32h-47.81v31.58h42.28v20.23h-42.27v33.45h47.72v20.65h-73.47V1.67h73.55Z"
  /><path
    d="M1001.56,74.96h-40.15v53.21h-25.43V1.97h77.98V22.31h-52.48V54.58h40.08v20.38Z"
  /><path d="M92.8,1.91V22.32H59.22v105.87h-25.63V22.49H0V1.91H92.8Z" /><path
    d="M328.67,1.9h25.22V108.17h41.59v20.06h-66.8V1.9Z"
  /><path
    d="M521.41,211.5h-20.06v-9.2h32.13c3.01,16.62-7.49,29.6-21.75,32.79-11.2,2.5-21.47,.12-29.62-8.32-7.12-7.36-9.33-16.41-7.77-26.43,1.94-12.49,9.02-20.84,21.12-24.18,11.63-3.21,22.54-1.31,31.21,7.77,2.5,2.61,4.05,6.12,6.04,9.22-.19,.26-.39,.52-.58,.77-4.35,0-8.69,.03-13.03-.04-.43,0-.98-.51-1.25-.93-4.03-6.22-10.17-7.49-16.8-6.51-6.77,1-11.46,5.1-13.42,11.73-2.43,8.21-1.65,15.95,4.79,22.26,6.93,6.78,24.65,7.14,28.73-7.05,.14-.5,.15-1.04,.26-1.88Z"
  /><path
    d="M330.54,235.48v-59.72c.95,0,1.8,0,2.66,0,7.19,.02,14.39-.19,21.57,.12,13.49,.58,25.1,9.05,27.44,22.99,1.63,9.72,.54,18.89-6.25,26.62-5.42,6.18-12.49,9.23-20.59,9.63-7.33,.36-14.69,.26-22.03,.35-.86,.01-1.73,0-2.8,0Zm12.17-10.23c4.12-.19,8.08-.31,12.03-.56,6.83-.42,12.76-4.9,14.49-11.52,.86-3.31,1.01-6.89,.96-10.35-.06-4.4-1.66-8.4-4.84-11.56-6.44-6.42-14.62-5.32-22.64-5.4v39.39Z"
  /><path
    d="M720.64,224.15c-1.12,3.21-2.27,6.31-3.28,9.46-.42,1.31-.99,1.95-2.5,1.9-3.49-.12-7-.04-10.79-.04,.29-1.11,.43-1.95,.71-2.73,6.56-18.26,13.15-36.5,19.66-54.77,.7-1.97,1.66-2.71,3.79-2.57,3.18,.21,6.4-.03,9.59,.12,.74,.03,1.87,.69,2.1,1.33,6.99,19.27,13.89,38.58,20.81,57.88,.03,.07,0,.16,0,.75-2.48,0-4.97,0-7.46,0q-5.18,0-6.83-4.82c-.72-2.09-.92-5.01-2.4-6.01-1.62-1.09-4.44-.47-6.74-.48-5.44-.04-10.87-.01-16.64-.01Zm20.13-10.08c-2.79-8.03-5.48-15.75-8.38-24.1-2.91,8.44-5.58,16.17-8.32,24.1h16.7Z"
  /><path
    d="M624.64,185.64v-9.71h43.68v9.6c-4.52,0-8.9,.09-13.28-.04-1.97-.06-2.59,.52-2.58,2.53,.08,14.76,.04,29.53,.04,44.3,0,.94,0,1.89,0,2.99h-12.06v-49.68h-15.81Z"
  /><path d="M811.58,225.66h19.53v9.67h-31.46v-59.39h11.93v49.73Z" /><path
    d="M422.39,175.84h11.93v59.62c-3.61,0-7.26,.04-10.91-.05-.39,0-.84-.71-1.1-1.19-.17-.31-.04-.78-.04-1.18,0-18.28,0-36.56,0-54.84,0-.71,.07-1.41,.13-2.36Z"
  /><path d="M573.3,175.87h11.78v59.45h-11.78v-59.45Z" /></svg>
